<svg width="1318" height="669" viewBox="0 0 1318 669" fill="none" xmlns="http://www.w3.org/2000/svg">
<path d="M78.0461 610.548C359.094 500.689 368.032 309.376 525.935 268.022C635.652 239.288 888.683 268.022 971.342 235.858C1084.06 191.998 1115.84 -23.5428 1405.82 52.0636" stroke="#9E23FF" stroke-width="0.836132"/>
<path d="M1.12128 668.241C39.4484 516.86 211.266 351.722 323.629 333.523C435.992 315.324 519.237 358.7 620.946 328.454C686.831 308.907 722.4 214.26 882.365 149.436C1042.33 84.6124 1051.86 245.69 1141.86 169.61C1251.34 85.9545 1161.77 15.0198 1302.98 1.00757" stroke="#FF004D" stroke-width="0.836132"/>
<path d="M71.0529 614.935C202.286 551.237 283.812 467.776 345.939 405.458C408.066 343.14 453.552 294.205 534.573 272.658C590.434 257.82 676.11 249.216 770.02 242.933C863.93 236.65 941.089 250.514 986.844 228.977C1099.27 181.5 1120.01 -20.8953 1396.48 46.564" stroke="#A720EF" stroke-width="0.836132"/>
<path d="M64.0598 619.382C186.003 546.916 276.557 455.287 343.708 397.381C410.859 339.475 460.121 299.771 543.21 277.354C600.073 262.045 680.739 244.837 781.254 232.7C881.77 220.563 952.166 249.148 1002.35 222.157C1114.47 171.062 1124.19 -18.1872 1387.13 41.1249" stroke="#B01DDF" stroke-width="0.836132"/>
<path d="M57.0666 623.906C169.719 542.671 269.303 442.875 341.477 389.381C413.651 335.887 466.689 305.414 551.847 282.127C609.713 266.347 685.368 240.534 792.489 222.543C899.61 204.552 963.243 247.859 1017.85 215.414C1129.68 160.701 1128.37 -15.4024 1377.78 35.7625" stroke="#B91ACE" stroke-width="0.836132"/>
<path d="M50.0735 628.527C153.435 538.524 262.048 430.56 339.246 381.478C416.444 332.395 473.258 311.153 560.485 286.996C619.353 270.746 689.997 236.329 803.724 212.484C917.451 188.639 974.32 246.667 1033.35 208.767C1144.89 150.436 1132.54 -12.5209 1368.43 30.4969" stroke="#C217BE" stroke-width="0.836132"/>
<path d="M43.0803 633.274C137.151 534.503 254.794 418.371 337.015 373.701C419.236 329.031 479.826 317.019 569.122 291.993C628.992 275.271 694.626 232.25 814.958 202.551C935.29 172.852 985.397 245.601 1048.85 202.247C1160.09 140.298 1136.72 -9.51244 1359.08 25.3582" stroke="#CA13AE" stroke-width="0.836132"/>
<path d="M36.0861 638.192C120.866 530.652 247.538 406.353 334.783 366.094C422.028 325.836 486.394 323.056 577.759 297.159C638.631 279.967 699.254 228.342 826.192 192.788C953.129 157.235 996.473 244.706 1064.35 195.898C1175.3 130.331 1140.89 -6.33408 1349.73 20.3894" stroke="#D3109E" stroke-width="0.836132"/>
<path d="M29.094 643.347C104.584 527.039 240.284 394.572 332.553 358.726C424.822 322.879 492.963 329.33 586.397 302.564C648.272 284.901 703.884 224.671 837.427 183.263C970.971 141.856 1007.55 244.048 1079.85 189.786C1190.51 120.601 1145.07 -2.91769 1340.38 15.6587" stroke="#DC0D8E" stroke-width="0.836132"/>
<path d="M22.1008 648.848C88.2998 523.772 233.03 383.137 330.322 351.703C427.614 320.268 499.532 335.95 595.034 308.314C657.912 290.18 708.513 221.346 848.662 174.084C988.811 126.823 1018.63 243.736 1095.36 184.02C1205.71 111.217 1149.24 0.844362 1331.03 11.2736" stroke="#E50A7E" stroke-width="0.836132"/>
<path d="M15.1076 654.893C72.016 521.048 225.775 372.246 328.091 345.224C430.407 318.201 506.1 343.114 603.672 314.608C667.551 296.003 713.142 218.565 859.896 165.449C1006.65 112.333 1029.7 243.968 1110.86 178.797C1220.92 102.377 1153.42 5.15021 1321.68 7.43226" stroke="#ED066D" stroke-width="0.836132"/>
<path d="M8.11447 661.547C55.7322 518.934 218.521 361.964 325.86 339.353C433.199 316.743 512.669 350.887 612.309 321.511C677.191 302.435 717.771 216.392 871.131 157.422C1024.49 98.4527 1040.78 244.809 1126.36 174.184C1236.13 94.1455 1157.59 10.0648 1312.33 4.19971" stroke="#F6035D" stroke-width="0.836132"/>
<circle cx="414.171" cy="412.385" r="8.36132" fill="#F9BEC7"/>
<circle cx="335.575" cy="494.325" r="8.36132" fill="#FF477E"/>
<circle cx="709.325" cy="288.637" r="8.36132" fill="#F9BEC7"/>
<circle cx="1042.94" cy="112.213" r="8.36132" fill="#FF99AC"/>
<circle cx="155.806" cy="378.939" r="8.36132" fill="#F9BEC7"/>
<circle cx="473.536" cy="256.865" r="8.36132" fill="#FF477E"/>
</svg>
