<svg width="46" height="30" viewBox="0 0 46 30" fill="none" xmlns="http://www.w3.org/2000/svg">
<g clip-path="url(#clip0_223_90)">
<path d="M6.5 29.7699C4.68 29.7699 3.16333 29.1399 1.95 27.8799C0.736664 26.6199 0.129997 25.1032 0.129997 23.3299C0.129997 21.4632 0.736664 19.9232 1.95 18.7099C3.16333 17.4499 4.68 16.8199 6.5 16.8199C8.36667 16.8199 9.88333 17.4499 11.05 18.7099C12.2633 19.9232 12.87 21.4632 12.87 23.3299C12.87 25.1032 12.2633 26.6199 11.05 27.8799C9.88333 29.1399 8.36667 29.7699 6.5 29.7699Z" fill="#FF477E"/>
<path d="M17.5863 29L28.7863 0.76001H34.4663L45.5463 29H38.9063L30.4263 5.56001H32.7063L24.1063 29H17.5863ZM23.9463 23.88V18.76H39.3463V23.88H23.9463Z" fill="black"/>
</g>
<defs>
<clipPath id="clip0_223_90">
<rect width="46" height="30" fill="white"/>
</clipPath>
</defs>
</svg>
