<svg width="1200" height="875" viewBox="0 0 1200 875" fill="none" xmlns="http://www.w3.org/2000/svg">
<path d="M1183.82 529.525C980.948 579.769 976.692 383.137 891.071 357.035C805.45 330.933 785.193 431.749 699.139 410.534C596.213 385.159 605.228 292.653 536.854 282.734C488.032 275.652 383.593 348.269 318.808 338.817C256.27 329.693 267.206 243.717 180.956 242.707C108.201 241.855 75.8656 332.55 22.7373 284.25" stroke="#E081CF" stroke-width="0.836132"/>
<path d="M1181.76 539.407C978.895 589.651 974.639 393.019 889.018 366.917C803.397 340.816 783.14 441.631 697.086 420.416C594.16 395.042 603.175 302.535 534.802 292.617C485.979 285.534 381.54 358.152 316.755 348.699C254.217 339.575 265.154 253.599 178.903 252.589C106.148 251.737 73.8128 342.432 20.6846 294.132" stroke="#E081CF" stroke-width="0.836132"/>
<path d="M1179.71 549.289C976.842 599.533 972.586 402.9 886.965 376.799C801.344 350.697 781.088 451.513 695.033 430.298C592.108 404.923 601.123 312.417 532.749 302.498C483.926 295.415 379.488 368.033 314.702 358.581C252.165 349.457 263.101 263.481 176.85 262.471C104.095 261.619 71.7601 352.313 18.6319 304.013" stroke="#E081CF" stroke-width="0.836132"/>
<path d="M1177.66 559.17C974.79 609.414 970.533 412.782 884.912 386.68C799.291 360.578 779.035 461.394 692.98 440.179C590.055 414.804 599.07 322.298 530.696 312.379C481.874 305.297 377.435 377.914 312.65 368.462C250.112 359.338 261.048 273.362 174.798 272.352C102.042 271.5 69.7074 362.195 16.5791 313.895" stroke="#E081CF" stroke-width="0.836132"/>
<path d="M1175.61 569.052C972.739 619.296 968.483 422.664 882.862 396.562C797.241 370.46 776.984 471.276 690.93 450.061C588.004 424.686 597.019 332.18 528.645 322.261C479.823 315.179 375.384 387.796 310.599 378.344C248.061 369.22 258.998 283.244 172.747 282.234C99.9917 281.382 67.6567 372.076 14.5285 323.777" stroke="#E081CF" stroke-width="0.836132"/>
<path d="M1173.56 578.933C970.686 629.177 966.43 432.545 880.809 406.443C795.188 380.342 774.931 481.157 688.877 459.942C585.952 434.568 594.966 342.061 526.593 332.143C477.77 325.06 373.331 397.677 308.546 388.225C246.008 379.101 256.945 293.125 170.694 292.115C97.9389 291.263 65.604 381.958 12.4757 333.658" stroke="#E081CF" stroke-width="0.836132"/>
<path d="M1171.5 588.816C968.633 639.06 964.376 442.427 878.755 416.326C793.134 390.224 772.878 491.04 686.823 469.824C583.898 444.45 592.913 351.944 524.539 342.025C475.717 334.942 371.278 407.56 306.493 398.108C243.955 388.983 254.891 303.008 168.641 301.998C95.8853 301.146 63.5504 391.84 10.4222 343.54" stroke="#E081CF" stroke-width="0.836132"/>
<path d="M1169.45 598.696C966.581 648.941 962.325 452.308 876.704 426.206C791.083 400.105 770.826 500.92 684.771 479.705C581.846 454.331 590.861 361.824 522.487 351.906C473.665 344.823 369.226 417.441 304.441 407.989C241.903 398.864 252.839 312.888 166.589 311.878C93.8335 311.026 61.4985 401.721 8.37028 353.421" stroke="#E081CF" stroke-width="0.836132"/>
<path d="M1167.4 608.578C964.529 658.822 960.273 462.19 874.652 436.088C789.031 409.987 768.774 510.802 682.72 489.587C579.795 464.213 588.809 371.706 520.436 361.788C471.613 354.705 367.174 427.322 302.389 417.87C239.851 408.746 250.788 322.77 164.537 321.76C91.7819 320.908 59.447 411.603 6.31876 363.303" stroke="#E081CF" stroke-width="0.836132"/>
<path d="M1165.35 618.46C962.477 668.704 958.221 472.072 872.6 445.97C786.979 419.868 766.723 520.684 680.668 499.469C577.743 474.094 586.758 381.588 518.384 371.669C469.561 364.587 365.123 437.204 300.337 427.752C237.8 418.628 248.736 332.652 162.485 331.642C89.7301 330.79 57.3951 421.485 4.26688 373.185" stroke="#E081CF" stroke-width="0.836132"/>
<path d="M1185.87 519.644C982.999 569.888 978.743 373.256 893.122 347.154C807.501 321.052 787.245 421.868 701.19 400.653C598.265 375.279 607.28 282.772 538.906 272.853C490.083 265.771 385.645 338.388 320.86 328.936C258.322 319.812 269.258 233.836 183.008 232.826C110.252 231.974 77.9172 322.669 24.789 274.369" stroke="#E081CF" stroke-width="0.836132"/>
<path d="M1163.29 628.341C960.423 678.585 956.167 481.953 870.546 455.851C784.925 429.749 764.668 530.565 678.613 509.35C575.688 483.975 584.703 391.469 516.329 381.55C467.507 374.468 363.068 447.085 298.283 437.633C235.745 428.509 246.681 342.533 160.431 341.523C87.6755 340.671 55.3406 431.365 2.21232 383.066" stroke="#E081CF" stroke-width="0.836132"/>
<path d="M26.6772 570.648C229.546 620.892 233.802 424.26 319.423 398.158C405.044 372.056 425.301 472.872 511.356 451.657C614.281 426.282 605.266 333.776 673.64 323.857C722.462 316.775 826.901 389.392 891.686 379.94C954.224 370.816 943.288 284.84 1029.54 283.83C1102.29 282.978 1134.63 373.673 1187.76 325.373" stroke="#E081CF" stroke-width="0.836132"/>
<circle cx="773.725" cy="507.039" r="8.36132" fill="#F9BEC7"/>
<circle cx="427.566" cy="283.793" r="8.36132" fill="#F9BEC7"/>
<path d="M882.422 67.2336C882.422 71.8515 878.678 75.595 874.06 75.595C869.443 75.595 865.699 71.8515 865.699 67.2336C865.699 62.6158 869.443 58.8723 874.06 58.8723C878.678 58.8723 882.422 62.6158 882.422 67.2336Z" fill="#FF477E"/>
<circle cx="65.5208" cy="381.62" r="8.36132" fill="#FF477E"/>
<path d="M759.51 262.889C759.51 267.507 755.767 271.25 751.149 271.25C746.531 271.25 742.788 267.507 742.788 262.889C742.788 258.271 746.531 254.528 751.149 254.528C755.767 254.528 759.51 258.271 759.51 262.889Z" fill="#FF477E"/>
</svg>
