<svg width="212" height="25" viewBox="0 0 212 25" fill="none" xmlns="http://www.w3.org/2000/svg">
<g clip-path="url(#clip0_215_82)">
<path d="M9.36468 24.368C7.42486 24.368 5.75259 24.0558 4.34789 23.4315C2.96548 22.7849 1.69456 21.815 0.535126 20.5218L3.94654 17.1438C4.70464 18.0134 5.54077 18.6934 6.45494 19.184C7.39141 19.6522 8.47281 19.8863 9.69914 19.8863C10.814 19.8863 11.6724 19.6857 12.2744 19.2843C12.8987 18.883 13.2109 18.3255 13.2109 17.612C13.2109 16.9654 13.0102 16.4415 12.6089 16.0401C12.2075 15.6388 11.6724 15.2932 11.0035 15.0033C10.3569 14.7135 9.63224 14.4347 8.82956 14.1672C8.04917 13.8996 7.26878 13.5986 6.48839 13.2642C5.708 12.9074 4.98335 12.4726 4.31444 11.9598C3.66783 11.4247 3.14386 10.7669 2.74251 9.98647C2.34117 9.18378 2.1405 8.18043 2.1405 6.9764C2.1405 5.5271 2.4861 4.27847 3.1773 3.23052C3.8908 2.18257 4.87186 1.39103 6.12049 0.855907C7.36911 0.298486 8.80726 0.0197754 10.4349 0.0197754C12.0849 0.0197754 13.5899 0.309634 14.95 0.889352C16.3325 1.46907 17.4696 2.26061 18.3615 3.26397L14.95 6.64194C14.2365 5.90614 13.5119 5.35987 12.7761 5.00312C12.0626 4.64637 11.2488 4.468 10.3346 4.468C9.42042 4.468 8.69578 4.64637 8.16065 5.00312C7.62553 5.33758 7.35797 5.82811 7.35797 6.47471C7.35797 7.07673 7.55864 7.56726 7.95998 7.94631C8.36132 8.30306 8.8853 8.61521 9.53191 8.88278C10.2008 9.15034 10.9255 9.4179 11.7059 9.68546C12.5085 9.95303 13.3001 10.2652 14.0805 10.622C14.8609 10.9787 15.5744 11.4358 16.221 11.9932C16.8899 12.5284 17.425 13.2196 17.8263 14.0668C18.2277 14.8918 18.4284 15.9175 18.4284 17.1438C18.4284 19.3958 17.6257 21.1684 16.0203 22.4616C14.4149 23.7325 12.1964 24.368 9.36468 24.368ZM21.7731 24.0001V0.387673H27.0241V24.0001H21.7731ZM36.3887 24.0001V0.387673H41.6731V24.0001H36.3887ZM24.917 14.1337V9.58513H38.1279V14.1337H24.917ZM46.2039 24.0001V0.387673H51.4548V24.0001H46.2039ZM56.0023 24.0001V0.387673H59.6813L61.2532 5.10346V24.0001H56.0023ZM72.2902 24.0001L58.3769 6.17371L59.6813 0.387673L73.5945 18.2141L72.2902 24.0001ZM72.2902 24.0001L70.8855 19.2843V0.387673H76.1364V24.0001H72.2902ZM88.4537 24.7359C86.7145 24.7359 85.2652 24.1339 84.1058 22.9299C82.9463 21.7258 82.3666 20.2765 82.3666 18.582C82.3666 16.7982 82.9463 15.3266 84.1058 14.1672C85.2652 12.9632 86.7145 12.3611 88.4537 12.3611C90.2374 12.3611 91.6867 12.9632 92.8015 14.1672C93.961 15.3266 94.5407 16.7982 94.5407 18.582C94.5407 20.2765 93.961 21.7258 92.8015 22.9299C91.6867 24.1339 90.2374 24.7359 88.4537 24.7359Z" fill="#FF477E"/>
<path d="M98.9759 24.0001L108.341 0.387673H113.09L122.354 24.0001H116.802L109.712 4.40111H111.618L104.427 24.0001H98.9759ZM104.294 19.7191V15.4381H117.17V19.7191H104.294ZM134.783 24.368C133.022 24.368 131.383 24.067 129.867 23.465C128.373 22.8407 127.057 21.9711 125.92 20.8562C124.805 19.7414 123.936 18.4482 123.311 16.9766C122.687 15.4827 122.375 13.8773 122.375 12.1605C122.375 10.4436 122.687 8.84933 123.311 7.37774C123.936 5.88385 124.805 4.59063 125.92 3.49808C127.035 2.40554 128.339 1.55826 129.833 0.956243C131.349 0.331931 132.988 0.0197754 134.75 0.0197754C136.622 0.0197754 138.284 0.320782 139.733 0.922797C141.204 1.52481 142.487 2.3498 143.579 3.39775L140.067 6.94295C139.443 6.27404 138.685 5.75007 137.793 5.37102C136.923 4.99197 135.909 4.80245 134.75 4.80245C133.724 4.80245 132.776 4.98083 131.907 5.33758C131.059 5.67203 130.324 6.16256 129.699 6.80917C129.097 7.45578 128.618 8.23617 128.261 9.15034C127.927 10.0646 127.759 11.0679 127.759 12.1605C127.759 13.2753 127.927 14.2898 128.261 15.204C128.618 16.1182 129.097 16.8985 129.699 17.5452C130.324 18.1918 131.059 18.6934 131.907 19.0502C132.776 19.4069 133.724 19.5853 134.75 19.5853C135.954 19.5853 137.002 19.3958 137.893 19.0168C138.785 18.6377 139.554 18.1137 140.201 17.4448L143.746 20.99C142.609 22.038 141.305 22.863 139.833 23.465C138.384 24.067 136.7 24.368 134.783 24.368ZM144.277 24.0001L153.642 0.387673H158.391L167.656 24.0001H162.104L155.013 4.40111H156.92L149.729 24.0001H144.277ZM149.595 19.7191V15.4381H162.471V19.7191H149.595ZM173.699 24.0001V19.3846H179.552C180.979 19.3846 182.228 19.1059 183.298 18.5485C184.368 17.9688 185.193 17.1327 185.773 16.0401C186.353 14.9476 186.643 13.6544 186.643 12.1605C186.643 10.6666 186.342 9.38446 185.739 8.31421C185.16 7.24396 184.335 6.41897 183.265 5.83925C182.217 5.25954 180.979 4.96968 179.552 4.96968H173.532V0.387673H179.619C181.403 0.387673 183.042 0.677532 184.535 1.25725C186.052 1.81467 187.367 2.62851 188.482 3.69876C189.619 4.74671 190.489 5.99533 191.091 7.44463C191.715 8.87163 192.027 10.4548 192.027 12.1939C192.027 13.9108 191.715 15.4938 191.091 16.9431C190.489 18.3924 189.63 19.6411 188.515 20.689C187.401 21.737 186.085 22.5508 184.569 23.1305C183.075 23.7102 181.447 24.0001 179.686 24.0001H173.699ZM170.154 24.0001V0.387673H175.405V24.0001H170.154ZM202.459 24.368C200.519 24.368 198.847 24.0558 197.442 23.4315C196.06 22.7849 194.789 21.815 193.629 20.5218L197.041 17.1438C197.799 18.0134 198.635 18.6934 199.549 19.184C200.486 19.6522 201.567 19.8863 202.793 19.8863C203.908 19.8863 204.767 19.6857 205.369 19.2843C205.993 18.883 206.305 18.3255 206.305 17.612C206.305 16.9654 206.105 16.4415 205.703 16.0401C205.302 15.6388 204.767 15.2932 204.098 15.0033C203.451 14.7135 202.727 14.4347 201.924 14.1672C201.143 13.8996 200.363 13.5986 199.583 13.2642C198.802 12.9074 198.078 12.4726 197.409 11.9598C196.762 11.4247 196.238 10.7669 195.837 9.98647C195.435 9.18378 195.235 8.18043 195.235 6.9764C195.235 5.5271 195.58 4.27847 196.272 3.23052C196.985 2.18257 197.966 1.39103 199.215 0.855907C200.463 0.298486 201.902 0.0197754 203.529 0.0197754C205.179 0.0197754 206.684 0.309634 208.044 0.889352C209.427 1.46907 210.564 2.26061 211.456 3.26397L208.044 6.64194C207.331 5.90614 206.606 5.35987 205.87 5.00312C205.157 4.64637 204.343 4.468 203.429 4.468C202.515 4.468 201.79 4.64637 201.255 5.00312C200.72 5.33758 200.452 5.82811 200.452 6.47471C200.452 7.07673 200.653 7.56726 201.054 7.94631C201.456 8.30306 201.98 8.61521 202.626 8.88278C203.295 9.15034 204.02 9.4179 204.8 9.68546C205.603 9.95303 206.394 10.2652 207.175 10.622C207.955 10.9787 208.669 11.4358 209.315 11.9932C209.984 12.5284 210.519 13.2196 210.921 14.0668C211.322 14.8918 211.523 15.9175 211.523 17.1438C211.523 19.3958 210.72 21.1684 209.115 22.4616C207.509 23.7325 205.291 24.368 202.459 24.368Z" fill="black"/>
</g>
<defs>
<clipPath id="clip0_215_82">
<rect width="212" height="25" fill="white"/>
</clipPath>
</defs>
</svg>
